<?xml version="1.0" encoding="utf-8"?>
<!-- Generator: Adobe Illustrator 16.0.0, SVG Export Plug-In . SVG Version: 6.00 Build 0)  -->
<!DOCTYPE svg PUBLIC "-//W3C//DTD SVG 1.1//EN" "http://www.w3.org/Graphics/SVG/1.1/DTD/svg11.dtd">
<svg version="1.1" id="圖層_1" xmlns="http://www.w3.org/2000/svg" xmlns:xlink="http://www.w3.org/1999/xlink" x="0px" y="0px"
	 width="400px" height="400.001px" viewBox="0 0 400 400.001" enable-background="new 0 0 400 400.001" xml:space="preserve">
<path fill-rule="evenodd" clip-rule="evenodd" d="M315.685,230.894c3.864,5.17,0.144,10.643,2.704,15.829
	c0.589-0.892,1.047-1.289,1.114-1.734c0.571-3.579,1.787-7.125,0.421-10.803c-0.266-0.71,0.391-1.688,0.626-2.544
	c0.904,0.297,2.052,0.388,2.675,0.934c2.434,2.132,3.511,4.645,3.103,7.821c-0.555,4.328-0.332,8.739-0.917,13.066
	c-0.74,5.453-1.866,10.873-2.993,16.282c-1.316,6.326-2.166,12.813-4.402,18.893c-2.628,7.136-6.488,13.924-9.902,20.83
	c-1.19,2.398-2.111,5.159-4.1,6.946c-4.661,4.19-8.744,8.947-14.854,11.87c-3.267,1.562-5.923,4.1-8.925,6.116
	c-1.098,0.733-2.449,1.171-3.607,1.844c-2.482,1.439-4.844,3.05-7.386,4.402c-3.591,1.904-7.243,3.735-10.98,5.409
	c-2.166,0.967-4.53,1.61-6.837,2.321c-4.333,1.33-8.647,2.725-13.048,3.854c-2.442,0.626-5.035,0.85-7.579,1.112
	c-4.12,0.424-8.252,0.887-12.391,1.03c-2.334,0.079-4.693-0.455-7.043-0.703c-0.696-0.073-1.422-0.248-2.095-0.157
	c-9.25,1.244-18.476,0.936-27.688-0.284c-3.244-0.429-4.16,0.315-3.458,3.158c1.016,4.108,2.958,7.762,7.444,9.846
	c0.992,0.46,2.155,0.788,3.27,0.87c5.571,0.403,11.163,1.065,16.727,0.939c4.886-0.109,9.768-1.028,14.604-1.812
	c3.207-0.52,6.387-1.298,9.485-2.208c2.442-0.717,5.101-1.426,7.034-2.813c3.744-2.687,7.021-5.878,10.564-8.783
	c0.556-0.456,1.541-0.782,2.283-0.726c1.554,0.118,3.076,0.534,4.935,0.89c1.661,3.221,1.204,4.65-2.54,6.967
	c-0.345,0.215-0.742,0.516-0.854,0.844c-1.348,3.958-4.362,6.731-7.934,9.263c-4.823,3.421-9.875,6.589-15.991,7.623
	c-5.265,0.894-10.712,1.209-16.085,1.271c-4.825,0.055-8.675-2.557-12.634-4.69c-0.832-0.45-2.064-0.514-3.093-0.459
	c-5.306,0.282-10.605,0.877-15.906,0.864c-1.516-0.004-3.117-1.583-4.505-2.617c-0.993-0.74-1.922-1.682-2.481-2.699
	c-1.98-3.604-5.648-6.253-6.959-10.311c-0.697-2.161-1.568-4.051-0.042-6.438c-2.594-0.631-4.944-1.217-7.304-1.771
	c-4.436-1.04-8.885-2.043-13.314-3.103c-2.224-0.53-4.574-0.881-6.604-1.772c-6.523-2.874-13.146-5.651-19.283-9.084
	c-3.555-1.991-6.458-5.011-9.277-7.853c-4.413-4.453-8.54-9.125-12.698-13.767c-0.835-0.932-1.293-2.132-1.88-3.226
	c-0.523-0.979-0.786-2.114-1.503-2.96c-4.31-5.068-6.711-10.838-8.199-16.94c-1.602-6.572-3.454-13.123-4.521-19.769
	c-0.685-4.267-0.17-8.684-0.145-13.033c0.011-1.869,0.414-3.766,0.162-5.601c-0.837-6.118,1.135-11.876,2.626-17.704
	c0.148-0.587,0.403-1.434,0.081-1.789c-1.926-2.115-0.153-2.721,1.639-3.259c1.658-0.494,3.372-0.85,5.064-1.255
	c0.42-0.104,0.959-0.06,1.262-0.275c3.847-2.748,8.291-1.849,12.641-1.703c2.383,0.082,4.775-0.053,7.163-0.113
	c0.349-0.009,0.822-0.032,1.022-0.224c4.423-4.213,10.259-2.144,15.496-2.709c2.359-0.253,4.734-0.402,7.098-0.638
	c3.252-0.323,6.507-0.66,9.753-1.032c3.303-0.381,6.593-0.839,9.896-1.213c1.834-0.206,3.684-0.452,5.523-0.436
	c7.346,0.063,14.689,0.317,22.033,0.313c5.209-0.004,10.6,0.379,15.591-0.631c8.664-1.757,17.427-0.925,26.111-1.648
	c7.222-0.599,14.633-0.378,21.995,0.671c5.531,0.786,11.319,0.297,16.987,0.184c8.409-0.169,16.817-0.45,25.218-0.829
	c1.22-0.057,2.378-0.943,3.592-1.383c1.147-0.417,2.324-1.047,3.502-1.07c3.875-0.069,7.76,0.231,11.629,0.105
	c1.824-0.062,2.695,0.267,2.783,1.902c0.051,1.007,0.307,2.008,0.307,3.013c-0.004,1.616-1.047,2.327-2.867,2.422
	c-8.954,0.463-17.915,0.868-26.856,1.492c-6.433,0.45-12.824,1.48-19.262,1.756c-5.483,0.229-11.006-0.361-16.512-0.389
	c-8.87-0.044-17.744,0.013-26.614,0.149c-3.85,0.059-7.697,0.354-11.536,0.657c-5.214,0.415-10.413,1.001-15.629,1.388
	c-2.993,0.226-6.019,0.112-9.017,0.315c-4.11,0.277-8.204,0.764-12.314,1.06c-5.451,0.396-10.909,0.729-16.371,1.008
	c-1.562,0.079-3.149-0.224-4.718-0.182c-5.396,0.149-10.791,0.39-16.186,0.57c-5.735,0.193-11.483,0.191-17.2,0.591
	c-5.577,0.389-11.132,1.109-16.676,1.814c-2.075,0.267-3.431,1.005-3.921,3.359c-1.734,8.334-1.92,16.732-2.088,25.141
	c-0.04,2.001,0.414,4.065,1.041,6.002c0.626,1.942,1.804,3.75,0.62,5.825c-0.091,0.158,0.023,0.492,0.168,0.66
	c2.933,3.345,2.765,7.571,3.877,11.368c1.835,6.281,4.831,11.843,9.732,16.625c3.057,2.985,6.048,6.043,9.357,8.797
	c6.235,5.192,12.219,10.76,19.158,15.127c8.527,5.367,18.411,8.718,28.523,11.311c1.526,0.391,3.143,0.498,4.703,0.799
	c3.948,0.768,7.851,2.019,11.834,2.26c6.942,0.423,13.58,3.011,20.784,1.756c5.177-0.904,10.542-0.932,15.791-1.55
	c4.544-0.532,9.124-1.076,13.535-2.121c3.013-0.713,5.788-2.25,8.622-3.501c1.953-0.861,3.775-0.653,5.878-0.305
	c2.117,0.354,4.687,0.293,6.608-0.467c4.49-1.77,8.685-4.114,13.047-6.145c3.498-1.63,7.154-3.005,10.586-4.73
	c5.074-2.551,10.528-4.626,14.531-8.618c0.848-0.843,2.123-1.355,3.204-2.016c0.219-0.137,0.642-0.259,0.642-0.388
	c-0.011-4.257,5.842-3.588,7.295-6.826c1.426-3.177,3.666-6.063,5.398-9.146c0.308-0.544,0.067-1.467-0.227-2.108
	c-0.791-1.729-0.912-3.233-0.071-5.128c1.358-3.077,2.178-6.37,2.935-9.624c1.329-5.695,2.633-11.408,3.57-17.162
	c0.609-3.748,0.538-7.581,0.794-11.376c0.126-1.86,0.388-3.717,0.438-5.58c0.114-4.154,0.089-8.313,0.223-12.467
	C314.747,233.189,315.219,232.354,315.685,230.894z M156.975,342.439c-2.071-0.957-4.143-1.913-6.211-2.874
	c-5.139-2.386-10.356-4.646-15.379-7.207c-3.067-1.564-5.996-3.416-8.689-5.445c-2.787-2.104-5.156-4.627-7.81-6.874
	c-3.476-2.943-7.249-5.631-10.519-8.736c-2.971-2.816-5.401-6.071-8.157-9.071c-0.476-0.515-1.396-0.715-2.11-1.062
	c-0.179,0.631-0.688,1.364-0.486,1.879c0.988,2.494,1.648,5.267,3.383,7.313c4.096,4.829,7.283,10.182,12.127,14.633
	c3.363,3.09,6.666,6.113,10.732,8.382c4.176,2.329,8.361,4.907,12.961,6.313c5.611,1.716,11.649,2.363,17.529,3.355
	c0.797,0.135,1.743-0.412,2.631-0.624c2.3,2.165,5.148,3.267,8.506,3.208c0.551-0.011,1.089-0.567,1.632-0.873
	c-0.442-0.405-0.829-1.091-1.337-1.171C162.858,343.123,159.911,342.806,156.975,342.439z M229.155,346.865
	c4.085,1.313,13.052-1.218,17.147-4.648C240.234,343.297,234.43,343.375,229.155,346.865z M148.561,228.063
	c0.719,0.494,0.861,0.677,0.992,0.669c4.472-0.261,8.945-0.511,13.411-0.857c0.441-0.032,0.826-0.658,1.238-1.008
	c-0.54-0.288-1.098-0.845-1.616-0.819c-3.963,0.193-7.927,0.456-11.875,0.817C150.032,226.927,149.422,227.565,148.561,228.063z
	 M170.12,351.638c-0.794,0.843-2.054,1.696-1.89,2.087c0.6,1.43,1.674,2.704,2.566,4.037c0.966-1.291,2.143-2.515,2.723-3.928
	C173.642,353.54,171.559,352.546,170.12,351.638z"/>
<path fill-rule="evenodd" clip-rule="evenodd" d="M320.34,81.319c-0.324-3.786-1.131-7.528-2.515-11.125
	c-0.492-1.272-0.627-2.439-0.513-3.499c-5.748,0.839-11.475,1.867-17.189,3.111c-1.549,0.339-2.941,0.217-4.182-0.176
	c-0.044,0.013-0.088,0.027-0.133,0.04c-2.271,0.649-4.749,0.542-7.096,0.976c-7.65,1.41-15.283,2.918-22.926,4.372
	c-6.457,1.229-12.94,2.323-19.367,3.682c-8.123,1.718-16.209,3.62-24.304,5.483c-6.974,1.605-13.926,3.303-20.905,4.881
	c-1.811,0.41-3.72,0.381-5.529,0.795c-8.707,1.989-17.381,4.134-26.098,6.08c-6.881,1.537-13.791,2.96-20.723,4.256
	c-4.23,0.788-8.533,1.173-12.787,1.854c-4.621,0.738-9.246,1.495-13.82,2.465c-2.832,0.601-5.525,1.961-8.368,2.369
	c-6.994,1.003-14.017,1.415-20.761,4.078c-5.609,2.214-11.611,3.417-17.399,5.201c-0.721,0.224-1.594,1.224-1.661,1.935
	c-0.071,0.733,0.652,1.642,1.218,2.313c0.489,0.58,1.264,0.917,1.877,1.4c2.479,1.951,5.225,3.08,8.41,2.442
	c5.557-1.111,11.101-2.291,16.636-3.504c7.945-1.743,15.877-3.539,23.813-5.319c4.632-1.041,9.229-2.256,13.897-3.091
	c3.037-0.542,6.176-0.498,9.261-0.799c3.859-0.376,7.711-0.826,11.565-1.257c0.422-0.049,0.847-0.097,1.27-0.146
	c0.146-0.052,0.267-0.128,0.422-0.174c7.203-2.187,14.591-3.324,22.042-3.966c0.801-0.323,1.673-0.565,2.67-0.624
	c0.183-0.011,0.363-0.029,0.547-0.042c8.017-2.615,16.612-3.629,25.342-4.076c17.771-5.155,36.915-5.538,55.33-7.5
	c11.778-2.014,23.509-4.402,35.442-5.344c2.279-0.181,4.558-0.339,6.841-0.481c0.858-0.281,1.724-0.553,2.557-0.894
	C316.357,85.747,319.007,84.25,320.34,81.319z"/>
<path fill-rule="evenodd" clip-rule="evenodd" d="M310.866,23.746c1.194,6.748,4.457,12.308,3.755,18.724
	c-0.227,2.044-3.259,4.402-5.987,3.974c-8.748-1.373-16.851,1.645-25.146,3.397c-0.347,0.073-0.673,0.252-1.022,0.303
	c-5.313,0.78-10.654,1.423-15.944,2.351c-5.506,0.967-10.984,2.132-16.444,3.347c-4.736,1.058-9.408,2.396-14.147,3.429
	c-2.396,0.521-4.95,0.37-7.308,0.999c-6.469,1.724-12.858,3.755-19.311,5.553c-1.782,0.498-3.74,0.397-5.506,0.931
	c-8.961,2.697-17.872,5.549-26.826,8.267c-3.541,1.077-7.222,1.727-10.697,2.971c-6.151,2.197-12.156,4.807-18.297,7.043
	c-3.952,1.438-8.059,2.456-12.053,3.782c-1.93,0.64-3.709,1.739-5.649,2.321c-6.122,1.831-12.355,3.307-18.415,5.323
	c-4.618,1.539-8.993,3.806-13.556,5.535c-5.046,1.914-10.184,3.581-15.271,5.381c-0.749,0.267-1.421,0.773-2.181,0.994
	c-1.758,0.511-3.607,1.442-5.311,1.251c-3.023-0.345-6.019-1.249-8.916-2.237c-0.939-0.319-1.541-1.634-2.298-2.491
	c1.144-0.786,2.212-1.741,3.452-2.321c1.654-0.768,3.639-0.936,5.145-1.89c7.769-4.924,16.021-8.771,24.634-11.976
	c3.914-1.454,7.52-3.729,11.353-5.43c2.905-1.293,5.905-2.414,8.943-3.357c5.449-1.695,11.017-3.02,16.426-4.834
	c4.601-1.541,9.043-3.557,13.557-5.356c4.146-1.652,8.252-3.417,12.452-4.913c6.368-2.271,12.749-4.542,19.23-6.453
	c4.741-1.397,9.7-2.045,14.475-3.347c5.532-1.501,10.954-3.389,16.443-5.041c4.512-1.356,9.084-2.517,13.579-3.924
	c7.688-2.404,15.297-5.075,23.025-7.341c3.338-0.978,6.894-1.216,10.348-1.814c3.868-0.671,7.709-1.102,11.193-3.448
	c1.986-1.337,4.753-1.579,7.209-2.148c3.433-0.799,6.906-1.437,10.358-2.161c3.173-0.664,6.343-1.365,9.515-2.039
	c2.075-0.441,4.159-0.844,6.229-1.304C304.828,25.145,307.746,24.463,310.866,23.746z"/>
<path fill-rule="evenodd" clip-rule="evenodd" d="M319.28,212.241c-1.187-3.806-2.25-7.69-3.877-11.313
	c-2.653-5.892-5.487-11.726-8.662-17.347c-3.111-5.52-6.607-10.838-10.211-16.055c-1.592-2.306-3.196-5.07-6.846-4.757
	c-0.487,0.04-1.095-0.812-1.579-1.318c-2.561-2.679-4.846-5.691-7.694-8.011c-6.776-5.512-13.554-11.096-20.845-15.864
	c-4.201-2.745-9.385-4.009-14.168-5.83c-1.466-0.557-3.366-0.327-4.563-1.173c-5.405-3.817-11.697-3.778-17.817-4.384
	c-1.968-0.195-4.154,0.032-5.994,0.724c-3.334,1.253-6.472,3.025-10.234,2.119c-0.31-0.075-0.722,0.053-1.026,0.206
	c-4.662,2.338-8.969,1.564-13.133-1.32c-0.902-0.624-2.092-1.105-3.164-1.138c-1.172-0.031-2.357,0.789-3.541,0.797
	c-4.556,0.029-8.771,1.201-12.68,3.472c-1.707,0.992-3.301,2.18-4.953,3.267c-1.004,0.662-2.07,1.24-3.022,1.966
	c-1.701,1.297-3.263,2.781-5.011,4.005c-5.762,4.035-10.742,8.771-14.365,14.887c-0.773,1.306-2.012,2.489-3.303,3.306
	c-2.624,1.656-5.473,2.951-8.155,4.521c-5.296,3.102-10.468,6.362-14.855,10.756c-2.346,2.351-2.853,3.984-1.871,7.132
	c0.273,0.877,0.019,2.216-0.511,2.985c-1.249,1.81-2.672,3.551-4.271,5.061c-5.429,5.132-11.965,9.067-16.378,15.305
	c-1.621,2.292-3.124,4.787-5.19,6.616c-3.467,3.065-2.378,6.854-2.635,10.321c2.084,0.407,3.707,0.773,5.345,1.036
	c2.353,0.378,3.298-0.438,3.536-2.881c0.039-0.416,0.203-0.843,0.395-1.221c2.122-4.241,3.806-8.62,7.796-11.803
	c4.683-3.738,8.563-8.492,13.302-12.146c3.488-2.691,6-5.319,5.742-9.976c-0.065-1.159,0.334-2.584,1.029-3.494
	c2.948-3.858,5.952-7.691,9.209-11.284c1.762-1.944,4.041-3.433,6.153-5.035c0.91-0.689,1.787-1.005,2.55-0.338
	c1.054-1.196,2.549-2.029,4.445-2.296c0.551-0.707,1.56-0.965,2.8-1.14c2.597-0.364,4.451-1.596,4.655-4.579
	c0.055-0.773,0.759-1.505,1.175-2.252c0.629-1.124,1.245-2.254,1.909-3.357c0.254-0.425,0.551-0.897,0.952-1.146
	c2.163-1.337,4.438-2.5,6.534-3.928c3.017-2.054,5.867-4.352,8.872-6.427c4.962-3.427,10.638-4.24,16.26-2.872
	c2.649,0.646,5.019,0.69,7.472,0.202c3.946-0.786,7.838-1.85,11.744-2.832c0.671-0.168,1.333-0.441,1.937-0.779
	c3.866-2.177,8.119-1.22,12.107-1.01c1.946,0.104,3.839,2.443,5.63,3.923c1.682,1.388,3.184,2.698,5.693,2.149
	c1.258-0.273,2.737,0.216,4.056,0.582c1.337,0.37,2.564,1.135,3.901,1.503c1.443,0.399,2.965,0.507,4.44,0.799
	c2.195,0.434,3.322,1.435,2.471,3.948c-0.259,0.766,0.175,2.424,0.757,2.704c2.584,1.238,5.269,2.38,8.037,3.086
	c6.486,1.657,11.288,5.418,14.855,10.96c0.263,0.408,0.806,0.711,1.28,0.894c2.443,0.939,4.942,1.74,7.346,2.771
	c0.818,0.35,1.444,1.192,2.095,1.871c0.479,0.501,0.805,1.146,1.282,1.648c2.157,2.275,4.257,4.613,6.551,6.744
	c1.532,1.424,2.34,3.634,3.569,4.73c2.731,2.438,3.764,5.513,5.186,8.507c0.398,0.843,0.441,1.854,0.643,2.787l-0.697,0.253
	c-1.079-1.388-2.16-2.773-3.238-4.161c-0.275,0.162-0.551,0.322-0.826,0.483c0.971,1.993,1.446,4.798,3.04,5.775
	c2.054,1.26,2.163,3.127,3.151,4.701c2.859,4.554,5.504,9.263,8.675,13.586c1.488,2.028,3.301,4.591,6.983,3.792
	C319.452,214.464,319.604,213.279,319.28,212.241z"/>
<g>
	<g>
		<path d="M186.517,186.493c6.941,0,6.941-10.764,0-10.764S179.575,186.493,186.517,186.493L186.517,186.493z"/>
	</g>
</g>
<path fill-rule="evenodd" clip-rule="evenodd" d="M251.266,192.086c-3.626,0.639-6.74-1.997-9.744-4.497
	c-3.153-2.62-3.919-2.801-6.266,0.397c-2.707,3.691-6.768,5.646-10.2,8.407c-2.985,2.398-6.042,2.679-9.481,1.816
	c-0.259-0.065-0.612-0.011-0.771-0.166c-3.251-3.158-7.691-2.573-11.553-3.804c-0.78-0.248-1.838-1.793-1.657-2.424
	c0.335-1.169,1.35-2.272,2.343-3.082c0.746-0.609,2.003-0.557,2.856-1.083c2.384-1.467,3.085-1.362,4.36,1.06
	c3.866,7.342,9.204,6.253,14.443,1.619c4.592-4.058,8.715-8.643,13.15-12.886c0.416-0.399,1.863-0.327,2.334,0.089
	c0.653,0.576,0.967,1.652,1.193,2.573c1.075,4.364,4.487,7.169,8.972,7.018c1.03-0.033,2.024-0.817,3.055-1.202
	c0.868-0.324,1.766-0.568,2.651-0.846c0.294,1.045,0.988,2.168,0.805,3.124C257.3,190.582,254.898,192.05,251.266,192.086z"/>
<path fill-rule="evenodd" clip-rule="evenodd" d="M274.014,192.956c-2.584-1.264-5.234-2.411-7.725-3.843
	c-1.038-0.598-0.126-2.227,1.354-2.658c1.116-0.325,2.411-0.595,3.208-1.339c1.596-1.49,3.149-1.165,4.568-0.157
	c1.482,1.053,3.04,2.285,1.943,4.594C276.678,190.99,276.726,193.093,274.014,192.956z"/>
<path fill-rule="evenodd" clip-rule="evenodd" d="M302.49,286.863c2.46-6.884,1.35-14.609,5.037-21.203
	c0.337,0.049,0.669,0.1,1.001,0.147c-0.228,1.6-0.383,3.213-0.698,4.796c-0.521,2.632-1.135,5.247-1.715,7.869
	c-0.572,2.575-1.102,5.163-1.758,7.718c-0.113,0.443-0.762,0.753-1.165,1.122C302.957,287.164,302.722,287.015,302.49,286.863z"/>
<path fill-rule="evenodd" clip-rule="evenodd" fill="#FFFFFF" d="M156.966,359.715c-0.877,0.265-1.823,0.887-2.62,0.733
	c-5.88-1.127-11.918-1.864-17.529-3.815c-4.6-1.6-8.785-4.533-12.961-7.184c-4.066-2.58-7.369-6.02-10.732-9.535
	c-4.844-5.064-8.031-11.152-12.127-16.646c-1.734-2.327-2.395-5.482-3.383-8.318c-0.201-0.585,0.308-1.42,0.486-2.139
	c0.715,0.396,1.635,0.622,2.11,1.209c2.756,3.412,5.187,7.114,8.157,10.32c3.27,3.532,7.043,6.589,10.519,9.936
	c2.653,2.557,5.022,5.429,7.81,7.821c2.693,2.309,5.622,4.417,8.689,6.196c5.022,2.911,10.24,5.484,15.379,8.199
	c2.068,1.093,4.14,2.18,6.211,3.269L156.966,359.715z"/>
<path fill-rule="evenodd" clip-rule="evenodd" fill="#FFFFFF" d="M194.887,364.796c5.276-3.971,11.079-4.06,17.146-5.289
	C207.938,363.41,198.974,366.289,194.887,364.796z"/>
<path fill-rule="evenodd" clip-rule="evenodd" fill="#FFFFFF" d="M148.561,229.645c0.861-0.567,1.472-1.293,2.15-1.362
	c3.948-0.412,7.912-0.71,11.875-0.932c0.519-0.029,1.076,0.605,1.616,0.934c-0.412,0.397-0.797,1.108-1.238,1.146
	c-4.466,0.393-8.939,0.679-13.411,0.976C149.422,230.414,149.279,230.206,148.561,229.645z"/>
<path fill-rule="evenodd" clip-rule="evenodd" fill="#FFFFFF" d="M170.12,370.225c1.438,1.032,3.521,2.163,3.399,2.5
	c-0.58,1.605-1.757,2.998-2.723,4.467c-0.893-1.516-1.967-2.966-2.566-4.591C168.066,372.154,169.326,371.184,170.12,370.225z"/>
<path fill-rule="evenodd" clip-rule="evenodd" fill="#FFFFFF" d="M156.975,359.761c2.937,0.416,5.884,0.778,8.803,1.304
	c0.508,0.091,0.895,0.87,1.337,1.333c-0.543,0.345-1.081,0.979-1.632,0.99c-3.357,0.067-6.206-1.186-8.513-3.66
	C156.966,359.715,156.975,359.761,156.975,359.761z"/>
<g>
	
		<text transform="matrix(1 0 0 1 133.0254 291.6201)" stroke="#000000" stroke-width="1.0764" stroke-linecap="round" stroke-linejoin="round" stroke-miterlimit="10" font-family="'Bahnschrift'" font-size="45.2096">jiabeng</text>
</g>
</svg>
