<?xml version="1.0" encoding="utf-8"?>
<!-- Generator: Adobe Illustrator 16.0.0, SVG Export Plug-In . SVG Version: 6.00 Build 0)  -->
<!DOCTYPE svg PUBLIC "-//W3C//DTD SVG 1.1//EN" "http://www.w3.org/Graphics/SVG/1.1/DTD/svg11.dtd">
<svg version="1.1" id="圖層_1" xmlns="http://www.w3.org/2000/svg" xmlns:xlink="http://www.w3.org/1999/xlink" x="0px" y="0px"
	 width="1108px" height="1052px" viewBox="0 0 1108 1052" enable-background="new 0 0 1108 1052" xml:space="preserve">
<g>
	<g>
		<path fill="#FFFFFF" d="M151.072,591c-24.424,30-38.133,58.372-38.133,95.015c0,139.362,196.313,248.412,438.468,248.412
			c242.176,0,438.452-107.076,438.452-246.438c0-36.658-13.694-66.989-38.11-96.989H151.072z"/>
		<path fill="#10193A" d="M551.407,949.386c-254.345,0-453.577-115.813-453.577-263.666c0-37.498,12.409-72.485,41.49-108.479
			l4.532-9.241h815.115l4.525,9.241c28.308,35.016,41.483,70.755,41.483,108.551C1004.977,832.571,805.744,949.386,551.407,949.386z
			 M158.401,599c-21.483,30-30.352,54.94-30.352,83.468c0,128.719,189.919,235.067,423.357,235.067
			c233.438,0,423.343-106.316,423.343-233.992c0-28.972-9.396-54.543-30.352-84.543H158.401z"/>
	</g>
	<path fill="#10193A" d="M840.556,302.62c-5.446-32.731-26.717-127.384-100.719-225.19c0,0-40.82-49.907-51.695,36.998
		c-4.089,32.654-7.49,64.561-10.146,91.682c-39.929-12.555-82.542-19.449-126.837-19.449c-46.513,0-91.171,7.588-132.814,21.384
		c-2.679-27.537-6.139-60.166-10.328-93.616c-10.877-86.904-51.696-36.998-51.696-36.998
		c-80.703,106.664-98.688,209.55-101.827,232.463c-68.835,70.2-111.1,162.684-111.1,266.789c0,2.804,0.161,6.317,0.205,6.317H958.64
		c0.059,0,0.227-3.514,0.227-6.317C958.866,468.972,913.666,373.484,840.556,302.62z"/>
	<path fill="#FFFFFF" d="M488.252,566.68c0,80.572-49.155,145.925-109.814,145.925c-60.629,0-109.799-65.353-109.799-145.925
		c0-80.601,49.17-145.932,109.799-145.932C439.097,420.748,488.252,486.079,488.252,566.68z"/>
	<path fill="#10193A" d="M470.313,538h0.405c-0.573-3.085-1.294-6.245-2.145-9.452c-7.563-35.461-25.618-64.183-49.479-79.691
		c-12.588-10.04-26.737-16.341-41.703-16.341c-16.442,0-31.904,7.619-45.39,19.453c-18.823,13.977-33.603,36.448-41.796,63.917
		c-2.73,7.558-4.802,15.028-6.122,22.115h0.155c-1.409,9.057-1.156,18.489-1.156,28.205c0,72.827,41.6,129.873,94.696,129.873
		c53.112,0,94.688-57.046,94.688-129.873C472.469,556.489,471.723,547.057,470.313,538z M377.78,664.15
		c-34.016,0-62.731-44.863-62.731-97.945c0-9.756,0.973-19.232,2.767-28.205h26.677c-0.854,5.367-1.318,11.012-1.318,16.848
		c0,35.096,16.504,63.549,36.832,63.549c20.331,0,36.819-28.454,36.819-63.549c0-5.835-0.465-11.48-1.317-16.848h22.264
		c1.796,8.973,2.77,18.449,2.77,28.205C440.541,619.287,411.796,664.15,377.78,664.15z"/>
	<path fill="#FFFFFF" d="M820.693,566.68c0,80.572-49.162,145.925-109.807,145.925c-60.637,0-109.807-65.353-109.807-145.925
		c0-80.601,49.17-145.932,109.807-145.932C771.531,420.748,820.693,486.079,820.693,566.68z"/>
	<path fill="#10193A" d="M802.764,538h0.396c-0.565-3.042-1.273-6.156-2.108-9.316c-7.548-35.524-25.625-64.301-49.519-79.829
		c-12.586-10.039-26.734-16.34-41.697-16.34c-16.451,0-31.92,7.624-45.409,19.465c-18.826,13.986-33.604,36.47-41.792,63.953
		c-2.722,7.542-4.785,14.996-6.102,22.067h0.148c-1.409,9.057-1.156,18.489-1.156,28.205c0,72.827,41.6,129.873,94.696,129.873
		c53.104,0,94.697-57.046,94.697-129.873C804.919,556.489,804.172,547.057,802.764,538z M710.222,664.15
		c-34.016,0-62.731-44.863-62.731-97.945c0-9.756,0.973-19.232,2.767-28.205h26.677c-0.854,5.367-1.318,11.012-1.318,16.848
		c0,35.096,16.497,63.549,36.834,63.549c20.336,0,36.817-28.454,36.817-63.549c0-5.835-0.464-11.48-1.317-16.848h22.264
		c1.795,8.973,2.77,18.449,2.77,28.205C772.982,619.287,744.23,664.15,710.222,664.15z"/>
	<path fill="#10193A" d="M579.495,662.012c0,13.811-16.978,25.015-37.913,25.015c-20.929,0-37.899-11.205-37.899-25.015
		c0-13.804,16.971-25.001,37.899-25.001C562.518,637.01,579.495,648.208,579.495,662.012z"/>
	<path fill="#10193A" d="M522.1,748.262c36.476,4.723,80.141-4.387,103.711-34.432c10.687-13.628-8.424-33.023-19.241-19.242
		c-19.6,25.001-54.39,30.374-84.47,26.468C504.748,718.809,504.953,746.036,522.1,748.262L522.1,748.262z"/>
</g>
</svg>
