<?xml version="1.0" encoding="utf-8"?>
<!-- Generator: Adobe Illustrator 16.0.0, SVG Export Plug-In . SVG Version: 6.00 Build 0)  -->
<!DOCTYPE svg PUBLIC "-//W3C//DTD SVG 1.1//EN" "http://www.w3.org/Graphics/SVG/1.1/DTD/svg11.dtd">
<svg version="1.1" id="圖層_1" xmlns="http://www.w3.org/2000/svg" xmlns:xlink="http://www.w3.org/1999/xlink" x="0px" y="0px"
	 width="186.768px" height="45.683px" viewBox="0 0 186.768 45.683" enable-background="new 0 0 186.768 45.683"
	 xml:space="preserve">
<g>
	<path d="M39.65,9.89c-1.162,0-1.943,0.451-1.943,1.123V37.8c0,0.672,0.781,1.121,1.943,1.121c1.161,0,1.942-0.449,1.942-1.121
		V11.013C41.593,10.341,40.812,9.89,39.65,9.89z"/>
	<path d="M50.982,10.534c-0.287-0.322-0.859-0.529-1.528-0.553l-0.13-0.002c-1.017,0-1.705,0.396-1.756,1.008l-2.237,26.742
		c-0.02,0.227,0.059,0.455,0.222,0.639c0.411,0.467,1.209,0.543,1.534,0.555l0.123,0.002c1.014,0,1.705-0.395,1.762-1.008
		l2.236-26.748C51.226,10.942,51.146,10.716,50.982,10.534z"/>
	<path d="M80.916,33.435h-8.863l-3.936-6.865l-4.755,0.402l-1.071,7.133l-8.404,0.604L61.422,12.2l7.066-0.402L80.916,33.435z
		 M66.814,21.378l-1.038-4.354h-0.904l-1.407,4.621L66.814,21.378z"/>
	<path d="M97.26,21.745c1.563,0.783,2.768,1.732,3.617,2.848c0.848,1.117,1.271,2.268,1.271,3.449c0,2.01-1.117,3.674-3.35,4.99
		c-2.523,1.496-6.027,2.244-10.516,2.244c-1.295,0-2.646-0.066-4.053-0.201L80.814,13.54c2.969-1.697,5.871-2.545,8.707-2.545
		c2.701,0,4.957,0.727,6.766,2.178c1.721,1.385,2.58,3.002,2.58,4.855C98.867,19.413,98.33,20.651,97.26,21.745z M88.283,19.536
		c1.227,0.111,2.277-0.156,3.148-0.805c0.803-0.58,1.205-1.25,1.205-2.01c0-1.16-0.904-1.74-2.713-1.74
		c-0.781,0-1.686,0.133-2.713,0.4L88.283,19.536z M91.063,30.554c0.58,0.113,1.117,0.168,1.607,0.168
		c1.094,0,1.943-0.256,2.547-0.77c0.557-0.424,0.836-0.971,0.836-1.641s-0.279-1.252-0.836-1.742
		c-0.627-0.537-1.441-0.805-2.445-0.805c-0.85,0-1.775,0.213-2.781,0.637L91.063,30.554z"/>
	<path d="M118.059,22.282L118,22.315l-0.076,1.977l-4.855,0.568l-0.135,3.691l10.551-1.141l0.334,7.432l-18.42,1.439l1.271-26.191
		l16.746-2.043l0.604,7.664l-10.852,1.318v2.928l5.057-0.592l-0.166,2.279V22.282z"/>
	<path d="M151.818,10.493l0.402,24.215h-7.938l-10.049-11.891v12.092h-3.08h-0.637h-2.547l-0.301-19.75l6.598-1.645l10.516,13.018
		l-0.4-15.939l3.986-0.1H151.818z"/>
	<path d="M174.057,19.669c-1.809-0.959-3.461-1.439-4.955-1.439c-1.631,0-2.926,0.547-3.887,1.641
		c-0.869,1.006-1.305,2.223-1.305,3.65c0,1.453,0.445,2.67,1.34,3.652c0.98,1.115,2.311,1.674,3.984,1.674
		c1.318,0,2.77-0.357,4.354-1.072v-1.809l-4.855,0.469l-0.301-3.885l9.912-0.871l0.705,14.102l-5.461,0.602v-1.641
		c-1.854,0.334-3.605,0.502-5.258,0.502c-4.555,0-8.105-1.238-10.65-3.717c-2.256-2.188-3.383-4.936-3.383-8.24
		c0-3.281,1.082-6.129,3.248-8.539c2.367-2.592,5.438-3.887,9.211-3.887c2.301,0,4.734,0.525,7.301,1.574v2.881v0.67V19.669z"/>
	<path d="M31.77,28.624l-1.641-17.93L27.1,11.331l0,0l-0.146,0.031l-0.299,0.063l-2.466,0.52l-2.634,0.555l0.971,13.307
		c0.09,1.404-0.123,2.486-0.637,3.244s-1.194,1.137-2.043,1.137c-0.938,0-1.786-0.447-2.545-1.34
		c-0.871-0.982-1.385-2.289-1.541-3.918l-2.486,0.539l-1.135,0.242l-0.565,0.088v0.031l-0.525,0.113l0,0l-3.024,0.627
		c1.116,3.863,2.902,6.777,5.358,8.742c2.121,1.674,4.556,2.512,7.302,2.512c3.014,0,5.666-0.932,7.955-2.793
		C30.926,33.167,31.971,31.032,31.77,28.624z"/>
</g>
</svg>
