<?xml version="1.0" encoding="utf-8"?>
<!-- Generator: Adobe Illustrator 16.0.0, SVG Export Plug-In . SVG Version: 6.00 Build 0)  -->
<!DOCTYPE svg PUBLIC "-//W3C//DTD SVG 1.1//EN" "http://www.w3.org/Graphics/SVG/1.1/DTD/svg11.dtd">
<svg version="1.1" id="圖層_1" xmlns="http://www.w3.org/2000/svg" xmlns:xlink="http://www.w3.org/1999/xlink" x="0px" y="0px"
	 width="271.486px" height="275.986px" viewBox="0 0 271.486 275.986" enable-background="new 0 0 271.486 275.986"
	 xml:space="preserve">
<g>
	<path d="M243.694,222.115c0,2.227-1.805,4.029-4.027,4.029H31.818c-2.225,0-4.029-1.803-4.029-4.029l0,0
		c0-2.225,1.805-4.027,4.029-4.027h207.849C241.89,218.088,243.694,219.891,243.694,222.115L243.694,222.115z"/>
	<path d="M243.585,244.313c-0.101,2.223-1.983,3.943-4.206,3.844L31.743,238.74c-2.223-0.1-3.943-1.984-3.844-4.207l0,0
		c0.102-2.223,1.985-3.943,4.207-3.842l207.636,9.414C241.965,240.207,243.685,242.09,243.585,244.313L243.585,244.313z"/>
</g>
<g>
	<path fill="#343538" d="M248.368,38.404v141.773c0,4.632-3.757,8.389-8.395,8.389H31.512c-4.637,0-8.393-3.757-8.393-8.389V38.404
		c0-4.632,3.756-8.389,8.393-8.389h208.462C244.611,30.016,248.368,33.772,248.368,38.404L248.368,38.404z"/>
	<g>
		<path fill="#DDCAB8" d="M149.783,57.506V165.51c0,7.486-5.117,9.928-8.096,9.928h-98.1c-2.98,0-7.205-1.521-7.205-9.008V52.907
			c0-7.485,4.225-9.01,7.205-9.01h98.1C144.666,43.897,149.783,50.02,149.783,57.506L149.783,57.506z"/>
		<path fill="#ECE2D8" d="M149.783,56.586v105.245c0,7.487-6.007,13.606-8.987,13.606H54.43c-2.979,0-7.203-2.441-7.203-9.928
			V51.986c0-7.483,2.44-8.089,5.422-8.089h89.039c2.979,0,8.096,2.444,8.096,9.93V56.586z"/>
	</g>
	<g>
		<path fill="#F39B2A" d="M238.342,50.604v11.051c0,2.707-2.362,4.922-5.25,4.922h-54.479c-2.887,0-5.25-2.215-5.25-4.922V50.604
			c0-2.707,2.363-4.921,5.25-4.921h54.479C235.979,45.683,238.342,47.896,238.342,50.604L238.342,50.604z"/>
		<g>
			<path fill="#F6AB4A" d="M238.342,50.604v11.051c0,2.707-2.362,4.922-5.25,4.922H189.99c-2.887,0-5.251-2.215-5.251-4.922V50.604
				c0-2.707,2.364-4.921,5.251-4.921h43.102C235.979,45.683,238.342,47.896,238.342,50.604L238.342,50.604z"/>
		</g>
	</g>
	<g>
		<path fill="#F39B2A" d="M238.342,79.692v10.516c0,2.575-2.362,4.683-5.25,4.683h-54.479c-2.887,0-5.25-2.107-5.25-4.683V79.692
			c0-2.575,2.363-4.682,5.25-4.682h54.479C235.979,75.011,238.342,77.117,238.342,79.692L238.342,79.692z"/>
		<path fill="#F6AB4A" d="M238.342,79.692v10.516c0,2.575-2.362,4.683-5.25,4.683H189.99c-2.887,0-5.251-2.107-5.251-4.683V79.692
			c0-2.575,2.364-4.682,5.251-4.682h43.102C235.979,75.011,238.342,77.117,238.342,79.692L238.342,79.692z"/>
	</g>
	<path fill="#00A53D" d="M218.43,125.451c0,2.477-1.278,4.891-3.565,6.209l-28.429,16.41l-4.182,2.418
		c-3.403,1.965-7.8,0.786-9.765-2.617c-1.964-3.402-0.783-7.795,2.619-9.758l32.608-18.828c3.402-1.964,7.795-0.789,9.759,2.613
		c0.463,0.803,0.754,1.656,0.876,2.527C218.408,124.766,218.43,125.111,218.43,125.451L218.43,125.451z"/>
	<path fill="#36AE39" d="M218.43,125.451c0,2.477-1.278,4.891-3.565,6.209l-28.429,16.41c-0.412-2.812,0.886-5.734,3.489-7.235
		l28.427-16.409C218.408,124.766,218.43,125.111,218.43,125.451L218.43,125.451z"/>
	<path fill="#00A53D" d="M238.748,143.965c0,1.08-0.247,2.178-0.766,3.203l-11.877,23.886l-0.232,0.468
		c-1.772,3.507-6.093,4.926-9.604,3.152c-3.507-1.773-4.922-6.092-3.153-9.6l12.115-24.357c1.773-3.508,6.091-4.922,9.6-3.152
		c0.497,0.25,0.952,0.553,1.358,0.898C237.829,139.837,238.748,141.873,238.748,143.965L238.748,143.965z"/>
	<path fill="#36AE39" d="M238.748,143.965c0,1.08-0.247,2.178-0.766,3.203l-11.877,23.886c-2.486-2.077-3.32-5.688-1.797-8.7
		l11.881-23.891C237.829,139.837,238.748,141.873,238.748,143.965L238.748,143.965z"/>
	<path fill="#9C1B20" d="M200.923,169.026c0,1.134-0.196,2.219-0.554,3.226c-1.329,3.761-4.915,6.451-9.128,6.451
		c-5.343,0-9.677-4.332-9.677-9.677c0-4.215,2.69-7.798,6.45-9.128c1.007-0.359,2.091-0.554,3.227-0.554
		C196.59,159.345,200.923,163.678,200.923,169.026L200.923,169.026z"/>
	<path fill="#BD1A23" d="M200.923,169.026c0,1.134-0.196,2.219-0.554,3.226c-1.011,0.359-2.095,0.555-3.229,0.555
		c-5.347,0-9.677-4.334-9.677-9.678c0-1.135,0.194-2.219,0.552-3.23c1.007-0.359,2.091-0.554,3.227-0.554
		C196.59,159.345,200.923,163.678,200.923,169.026L200.923,169.026z"/>
	<path fill="#DDCAB8" d="M119.871,151.195c0.49-4.675,3.199-14.766,17.383-16.109c1.304-0.125,2.394,1.059,2.211,2.391
		c-0.676,4.906-3.725,15.301-17.449,16.045C120.767,153.59,119.736,152.473,119.871,151.195L119.871,151.195z"/>
	<path fill="#DDCAB8" d="M74.949,137.051c4.324,1.837,13.181,7.385,10.313,21.338c-0.264,1.283-1.715,1.979-2.934,1.414
		c-4.494-2.082-13.539-8.04-10.23-21.383C72.398,137.205,73.768,136.547,74.949,137.051L74.949,137.051z"/>
	<path fill="#DDCAB8" d="M50.094,144.966c-0.292-3.832,0.376-12.325,11.338-15.275c1.007-0.272,2.037,0.54,2.086,1.637
		c0.184,4.044-0.709,12.825-11.398,15.231C51.146,146.777,50.174,146.014,50.094,144.966L50.094,144.966z"/>
	<path fill="#DDCAB8" d="M97.502,149.117c3.82,0.409,12.051,2.613,12.953,13.93c0.084,1.041-0.9,1.904-1.99,1.754
		c-4.009-0.559-12.48-3.033-12.898-13.984C95.527,149.82,96.456,149.004,97.502,149.117L97.502,149.117z"/>
	<path fill="#DDCAB8" d="M119.871,77.561c0.49-4.674,3.199-14.766,17.383-16.109c1.304-0.125,2.394,1.06,2.211,2.391
		c-0.676,4.906-3.725,15.301-17.449,16.045C120.767,79.955,119.736,78.838,119.871,77.561L119.871,77.561z"/>
	<path fill="#DDCAB8" d="M79.201,86.642c4.324,1.837,13.182,7.385,10.313,21.339c-0.265,1.282-1.716,1.979-2.935,1.414
		c-4.493-2.082-13.539-8.041-10.23-21.385C76.65,86.797,78.02,86.139,79.201,86.642L79.201,86.642z"/>
	<path fill="#DDCAB8" d="M62.195,77.514c-0.293-3.832,0.375-12.325,11.336-15.275c1.009-0.271,2.037,0.54,2.088,1.637
		c0.182,4.045-0.708,12.826-11.398,15.232C63.246,79.325,62.273,78.563,62.195,77.514L62.195,77.514z"/>
	<path fill="#DDCAB8" d="M106.898,90.188c3.822,0.41,12.051,2.613,12.955,13.93c0.082,1.041-0.902,1.904-1.991,1.754
		c-4.01-0.559-12.481-3.033-12.899-13.982C104.924,90.891,105.854,90.074,106.898,90.188L106.898,90.188z"/>
	<path fill="none" d="M244.965,38.406c0-2.751-2.236-4.988-4.989-4.988h-73.833v72.471h78.822V38.406z"/>
	<g>
		<g>
			<path fill="#901A1E" d="M74.742,59.73L56.229,96.874c-1.669,3.351-5.782,4.724-9.129,3.056c-3.356-1.672-4.727-5.779-3.059-9.131
				l18.514-37.143c1.671-3.348,5.778-4.727,9.131-3.057c0.591,0.299,1.124,0.67,1.588,1.105c0.845,0.781,1.462,1.762,1.818,2.831
				C75.648,56.191,75.577,58.058,74.742,59.73L74.742,59.73z"/>
			<path fill="#A11E21" d="M74.742,59.73L56.431,96.473c-2.158-2.002-2.841-5.271-1.469-8.027l18.313-36.74
				c0.845,0.781,1.462,1.762,1.818,2.831C75.648,56.191,75.577,58.058,74.742,59.73L74.742,59.73z"/>
		</g>
		<g>
			<path fill="#901A1E" d="M93.742,67.49l-18.514,37.142c-1.668,3.351-5.78,4.725-9.127,3.057c-3.35-1.669-4.727-5.78-3.057-9.131
				l18.512-37.142c1.67-3.348,5.781-4.725,9.131-3.056c0.594,0.296,1.125,0.667,1.59,1.104c0.843,0.781,1.461,1.761,1.818,2.831
				C94.65,63.951,94.578,65.816,93.742,67.49L93.742,67.49z"/>
			<path fill="#A11E21" d="M93.742,67.49L75.43,104.232c-2.15-2-2.84-5.273-1.467-8.027l18.314-36.741
				c0.843,0.781,1.461,1.761,1.818,2.831C94.65,63.951,94.578,65.816,93.742,67.49L93.742,67.49z"/>
		</g>
	</g>
	<path fill="#0C020B" d="M239.976,26.613h-83.98h-20.2h-13.608h-9.776h-80.9c-6.502,0-11.793,5.289-11.793,11.793v117.715v5.26
		v13.61v5.185c0,6.503,5.291,11.793,11.793,11.793h208.468c6.503,0,11.793-5.29,11.793-11.793V168.99v-7.503v-13.61v-2.943V38.406
		C251.771,31.902,246.479,26.613,239.976,26.613z M159.387,112.693v5.641v66.83H31.51c-2.75,0-4.988-2.237-4.988-4.988v-5.185
		v-13.61v-5.26v-37.787v-5.641v-6.805v-7.137V38.406c0-2.751,2.238-4.988,4.988-4.988h55.552h4.957h6.806h13.586h5.09h4.687h13.608
		h20.2h3.283v65.334h0.108V112.693z M166.143,33.418h73.833c2.753,0,4.989,2.237,4.989,4.988v67.482h-78.822V33.418z
		 M244.965,180.176c0,2.751-2.236,4.988-4.987,4.988h-73.785v-72.471h78.772v32.24v2.943v21.113l0,0V180.176z"/>
	<g>
		
			<ellipse transform="matrix(0.9644 -0.2644 0.2644 0.9644 -31.7737 33.6984)" fill="#FFFFFF" cx="109.3" cy="134.886" rx="32.217" ry="29.139"/>
		<g>
			<path fill="#F39B2A" d="M118.168,136.422c1.736,6.336-1.033,12.842-6.366,16.107c-1.13,0.693-2.38,1.241-3.727,1.609
				c-7.681,2.107-15.612-2.413-17.718-10.094c-2.105-7.68,2.413-15.611,10.095-17.717c1.346-0.369,2.7-0.537,4.026-0.516
				C110.729,125.902,116.432,130.086,118.168,136.422L118.168,136.422z"/>
			<path fill="#F6AB4A" d="M118.168,136.422c1.736,6.336-1.033,12.842-6.366,16.107c-6.251-0.09-11.953-4.275-13.689-10.609
				c-1.736-6.335,1.034-12.842,6.366-16.107C110.729,125.902,116.432,130.086,118.168,136.422L118.168,136.422z"/>
		</g>
	</g>
</g>
</svg>
