<svg id="svg40450" xmlns="http://www.w3.org/2000/svg" viewBox="0 0 1207.91 1273.01"><defs><style>.cls-1{fill:#ef3e42;}.cls-2{fill:#febd11;}.cls-3{fill:#ffd420;}.cls-4{fill:#fff;}</style></defs><title>工作區域 1</title><g id="layer1"><g id="g55015"><g id="g47059"><path id="path47061" class="cls-1" d="M103.91,773,139,1088.29h900.18l35-315.25Z"/></g><g id="g47071"><path id="path47073" class="cls-2" d="M905.59,852.28S860.05,199,762,199C646.4,199,641.14,813.74,641.14,813.74l-107.71.89s-5.26-614.72-120.84-614.72C314.51,199.91,269,853.17,269,853.17l-105.52-.46s70.89-711.29,255.25-712.18C540,139.94,586.82,446.87,586.82,446.87s70.53-306.93,161.61-306.93c218.91,0,262.67,712.77,262.67,712.77Z"/></g><g id="g47075"><path id="path47077" class="cls-3" d="M587.29,801.05l-53.86,13.58,107.72-.89Z"/></g><g id="g47079"><path id="path47081" class="cls-3" d="M955.07,839.58,906,852.7h105.09Z"/></g><g id="g47083"><path id="path47085" class="cls-3" d="M212.51,839.58l-49,13.12,105.52.46Z"/></g><g id="g47087"><path id="path47089" class="cls-3" d="M757.16,170.58c-143.62,0-169.89,630.47-169.89,630.47l-.46-354.18s70.53-306.93,161.61-306.93Z"/></g><g id="g47091"><path id="path47093" class="cls-3" d="M412.16,172.33c140.1,0,175.11,628.73,175.11,628.73l-53.82,13.58s-5.26-614.72-120.87-614.72Z"/></g><g id="g47095"><path id="path47097" class="cls-3" d="M212.51,839.58s57.8-667.26,199.64-667.26l6.55-31.79c-184.36.88-255.22,712.17-255.22,712.17Z"/></g><g id="g47099"><path id="path47101" class="cls-3" d="M955.07,839.58s-52.55-669-197.91-669L762,199.05c98,0,143.58,653.22,143.58,653.22Z"/></g><g id="g47145"><path id="path47147" class="cls-4" d="M1022.94,906.63l-3.42-15.45v15.45h-3.92v-19.1h5.73l3.58,14.66,3.55-14.66h5.75v19.1h-3.94V891.18l-3.42,15.45Zm-9.42-19.09v3.28h-5.59v15.82H1004V890.82h-5.79v-3.28Zm-589.81,41.9h12.2c27.75,0,30.18,18.74,30.18,25.48,0,10.06-3.48,26.7-27.39,26.7h-15Zm-33.44,73.09h50.24c39.36,0,57.67-18.41,57.67-47.38,0-23.8-13.28-47.08-50.86-47.08H390.27v94.46Zm534.9-95.1h24.37L941.45,935H925.17ZM565.89,961c0,9.4-1.84,22.09-15.65,22.09S534.59,970.35,534.59,961,536.43,939,550.24,939s15.65,12.52,15.65,21.93m29.82,0c0-22.85-14.17-43.17-45.57-43.17s-45.6,20.32-45.6,43.17,14.17,43.37,45.6,43.37,45.57-20.48,45.57-43.37m9,42h29V961.3c0-12.63,7.93-15.22,13.09-15.22,8.81,0,12.66,6.41,12.66,15.55V1003l29.33,0V948.84c0-14.77-11.68-26.73-29.07-26.77-12,0-21.6,4.11-27.22,12v-10H604.67ZM778.6,952.19c-.62-9.44-.07-31.89-37.75-31.89-18.7,0-39.22,4.8-39.22,27h28.14A9.78,9.78,0,0,1,740,938c4.83,0,9.53,3.16,9.76,8.45.1,2.63-4.4,5.1-8.58,5-17.06-.3-43.4,2.1-43.4,27.55,0,16.57,11.87,25.18,27.06,25.18,9.73,0,17.2-2.92,23.84-9l1.48.59c-.17,2.1-.46,4.3.29,6.44h28.74c-2.07-5.56-.56-11.7-.56-17.66V952.19Zm-28.77,20.22c-.29,4.77-7.5,11.35-13.81,11.31-5.49,0-8.35-3.19-8.35-6.84,0-5.32,1.22-9,7.2-10.19a92,92,0,0,1,15-1.58v7.3Zm41.63-65h30.08v95.45H791.46Zm97.22,55.74c0,9.4-2.63,19.56-14.33,19.56S860,972.56,860,963.16c0-9.24,2.63-19.4,14.31-19.4s14.33,10.16,14.33,19.4m28.15-55.73h-29v22.65h-.33c-4.54-6.71-13.78-9.17-22.75-9.17-26.44,0-34.72,24-34.72,42.51,0,23.05,10.19,41.3,34.36,41.23,14.73-.06,19.3-5.62,23.08-10.65h.29v8.68h29V907.43Zm98.86,38.92c-.6-24.86-20.85-26.86-36.83-27.26-12.56-.29-35.15,4.54-35.15,25.42,0,14.17,8.72,21.83,30.25,26,13.15,2.53,14.3,5.26,14.5,8.81.23,4.77-4.7,7.76-8.42,7.76-3.41,0-6.11-.95-7.56-2.36-2.13-2.08-3.35-5.92-3.52-8.78h-28.4C941,997.25,954,1005,979,1005.07c18,0,39.13-5.82,39.13-28.8,0-12-8.09-18.55-19.47-21.54-9.73-2.56-18.94-4-23.64-6.28-1.58-.79-4.14-3-4.14-5.39,0-5.42,4.73-6.28,8.55-6.38,2.3-.06,4.57-.16,6.28,1.45,1.87,1.41,3.15,5.52,3.29,8.22Zm-856.19,55.8h30.38s7-44.85,7.3-48.63l16.74,48.63H240l17.06-48.63,5.36,48.63h32.72L278.69,907.2h-37s-13.16,42.18-13.81,46.32h-.92L213.13,907.2H175.68Zm219.43-50.92c-1.81-21.74-19.46-31.93-40.11-31.93-23.71,0-42.61,16.57-42.71,41.5-.1,31.13,19,43.36,42.71,43.36,21.27,0,38.17-6.6,41-34.22H351.12c-.6,6.24-3,13.18-11.71,13.18-13.28,0-13.22-12.76-13.22-22.32s.33-21.31,11.87-21.31c3.19,0,7.27,1.28,9.11,3s2.89,5.59,3.19,8.78Z"/></g></g></g></svg>